<mxfile host="app.diagrams.net" modified="2024-01-01T15:36:28.703Z" agent="Mozilla/5.0 (Windows NT 10.0; Win64; x64) AppleWebKit/537.36 (KHTML, like Gecko) Chrome/120.0.0.0 Safari/537.36" etag="iHNEcqizeMg4pSP-IeE8" version="22.1.15" type="github" pages="3">
  <diagram id="C5RBs43oDa-KdzZeNtuy" name="Page-1">
    <mxGraphModel dx="880" dy="426" grid="1" gridSize="10" guides="1" tooltips="1" connect="1" arrows="1" fold="1" page="1" pageScale="1" pageWidth="827" pageHeight="1169" math="0" shadow="0">
      <root>
        <mxCell id="WIyWlLk6GJQsqaUBKTNV-0" />
        <mxCell id="WIyWlLk6GJQsqaUBKTNV-1" parent="WIyWlLk6GJQsqaUBKTNV-0" />
        <mxCell id="2Ll1QgH6S7E57T0h4xmj-23" style="edgeStyle=orthogonalEdgeStyle;rounded=0;orthogonalLoop=1;jettySize=auto;html=1;exitX=0.5;exitY=1;exitDx=0;exitDy=0;" edge="1" parent="WIyWlLk6GJQsqaUBKTNV-1" source="WIyWlLk6GJQsqaUBKTNV-7" target="2Ll1QgH6S7E57T0h4xmj-21">
          <mxGeometry relative="1" as="geometry" />
        </mxCell>
        <mxCell id="WIyWlLk6GJQsqaUBKTNV-7" value="user melihat halaman list buku" style="whiteSpace=wrap;html=1;fontSize=12;glass=0;strokeWidth=1;shadow=0;" parent="WIyWlLk6GJQsqaUBKTNV-1" vertex="1">
          <mxGeometry x="350" y="250" width="120" height="40" as="geometry" />
        </mxCell>
        <mxCell id="2Ll1QgH6S7E57T0h4xmj-42" value="" style="edgeStyle=orthogonalEdgeStyle;rounded=0;orthogonalLoop=1;jettySize=auto;html=1;" edge="1" parent="WIyWlLk6GJQsqaUBKTNV-1" source="WIyWlLk6GJQsqaUBKTNV-12" target="2Ll1QgH6S7E57T0h4xmj-41">
          <mxGeometry relative="1" as="geometry" />
        </mxCell>
        <mxCell id="WIyWlLk6GJQsqaUBKTNV-12" value="user klik menu dashboard" style="whiteSpace=wrap;html=1;fontSize=12;glass=0;strokeWidth=1;shadow=0;" parent="WIyWlLk6GJQsqaUBKTNV-1" vertex="1">
          <mxGeometry x="670" y="250" width="120" height="40" as="geometry" />
        </mxCell>
        <mxCell id="2Ll1QgH6S7E57T0h4xmj-1" value="mulai" style="rounded=1;whiteSpace=wrap;html=1;fontSize=12;glass=0;strokeWidth=1;shadow=0;" vertex="1" parent="WIyWlLk6GJQsqaUBKTNV-1">
          <mxGeometry x="520" y="80" width="120" height="40" as="geometry" />
        </mxCell>
        <mxCell id="2Ll1QgH6S7E57T0h4xmj-2" value="user melihat homepage" style="whiteSpace=wrap;html=1;fontSize=12;glass=0;strokeWidth=1;shadow=0;" vertex="1" parent="WIyWlLk6GJQsqaUBKTNV-1">
          <mxGeometry x="520" y="160" width="120" height="40" as="geometry" />
        </mxCell>
        <mxCell id="2Ll1QgH6S7E57T0h4xmj-3" value="klik menu list buku?" style="rhombus;whiteSpace=wrap;html=1;shadow=0;fontFamily=Helvetica;fontSize=12;align=center;strokeWidth=1;spacing=6;spacingTop=-4;" vertex="1" parent="WIyWlLk6GJQsqaUBKTNV-1">
          <mxGeometry x="530" y="230" width="100" height="80" as="geometry" />
        </mxCell>
        <mxCell id="2Ll1QgH6S7E57T0h4xmj-4" value="" style="rounded=0;html=1;jettySize=auto;orthogonalLoop=1;fontSize=11;endArrow=block;endFill=1;endSize=8;strokeWidth=1;shadow=0;labelBackgroundColor=none;edgeStyle=orthogonalEdgeStyle;exitX=0.5;exitY=1;exitDx=0;exitDy=0;entryX=0.5;entryY=0;entryDx=0;entryDy=0;" edge="1" parent="WIyWlLk6GJQsqaUBKTNV-1" source="2Ll1QgH6S7E57T0h4xmj-1" target="2Ll1QgH6S7E57T0h4xmj-2">
          <mxGeometry relative="1" as="geometry">
            <mxPoint x="230" y="130" as="sourcePoint" />
            <mxPoint x="230" y="200" as="targetPoint" />
          </mxGeometry>
        </mxCell>
        <mxCell id="2Ll1QgH6S7E57T0h4xmj-5" value="" style="rounded=0;html=1;jettySize=auto;orthogonalLoop=1;fontSize=11;endArrow=block;endFill=1;endSize=8;strokeWidth=1;shadow=0;labelBackgroundColor=none;edgeStyle=orthogonalEdgeStyle;exitX=0.5;exitY=1;exitDx=0;exitDy=0;entryX=0.5;entryY=0;entryDx=0;entryDy=0;" edge="1" parent="WIyWlLk6GJQsqaUBKTNV-1" source="2Ll1QgH6S7E57T0h4xmj-2" target="2Ll1QgH6S7E57T0h4xmj-3">
          <mxGeometry relative="1" as="geometry">
            <mxPoint x="590" y="130" as="sourcePoint" />
            <mxPoint x="590" y="170" as="targetPoint" />
          </mxGeometry>
        </mxCell>
        <mxCell id="2Ll1QgH6S7E57T0h4xmj-6" value="" style="rounded=0;html=1;jettySize=auto;orthogonalLoop=1;fontSize=11;endArrow=block;endFill=1;endSize=8;strokeWidth=1;shadow=0;labelBackgroundColor=none;edgeStyle=orthogonalEdgeStyle;exitX=0;exitY=0.5;exitDx=0;exitDy=0;entryX=1;entryY=0.5;entryDx=0;entryDy=0;" edge="1" parent="WIyWlLk6GJQsqaUBKTNV-1" source="2Ll1QgH6S7E57T0h4xmj-3" target="WIyWlLk6GJQsqaUBKTNV-7">
          <mxGeometry relative="1" as="geometry">
            <mxPoint x="470" y="330" as="sourcePoint" />
            <mxPoint x="530" y="300" as="targetPoint" />
          </mxGeometry>
        </mxCell>
        <mxCell id="2Ll1QgH6S7E57T0h4xmj-9" value="yes" style="text;html=1;strokeColor=none;fillColor=none;align=center;verticalAlign=middle;whiteSpace=wrap;rounded=0;" vertex="1" parent="WIyWlLk6GJQsqaUBKTNV-1">
          <mxGeometry x="480" y="230" width="60" height="30" as="geometry" />
        </mxCell>
        <mxCell id="2Ll1QgH6S7E57T0h4xmj-12" value="" style="rounded=0;html=1;jettySize=auto;orthogonalLoop=1;fontSize=11;endArrow=block;endFill=1;endSize=8;strokeWidth=1;shadow=0;labelBackgroundColor=none;edgeStyle=orthogonalEdgeStyle;exitX=1;exitY=0.5;exitDx=0;exitDy=0;entryX=0;entryY=0.5;entryDx=0;entryDy=0;" edge="1" parent="WIyWlLk6GJQsqaUBKTNV-1" source="2Ll1QgH6S7E57T0h4xmj-3" target="WIyWlLk6GJQsqaUBKTNV-12">
          <mxGeometry relative="1" as="geometry">
            <mxPoint x="590" y="130" as="sourcePoint" />
            <mxPoint x="590" y="170" as="targetPoint" />
          </mxGeometry>
        </mxCell>
        <mxCell id="2Ll1QgH6S7E57T0h4xmj-13" value="no" style="text;html=1;strokeColor=none;fillColor=none;align=center;verticalAlign=middle;whiteSpace=wrap;rounded=0;" vertex="1" parent="WIyWlLk6GJQsqaUBKTNV-1">
          <mxGeometry x="610" y="230" width="60" height="30" as="geometry" />
        </mxCell>
        <mxCell id="2Ll1QgH6S7E57T0h4xmj-25" value="" style="edgeStyle=orthogonalEdgeStyle;rounded=0;orthogonalLoop=1;jettySize=auto;html=1;" edge="1" parent="WIyWlLk6GJQsqaUBKTNV-1" source="2Ll1QgH6S7E57T0h4xmj-21" target="2Ll1QgH6S7E57T0h4xmj-24">
          <mxGeometry relative="1" as="geometry" />
        </mxCell>
        <mxCell id="2Ll1QgH6S7E57T0h4xmj-21" value="user mencari buku" style="whiteSpace=wrap;html=1;glass=0;strokeWidth=1;shadow=0;" vertex="1" parent="WIyWlLk6GJQsqaUBKTNV-1">
          <mxGeometry x="350" y="330" width="120" height="40" as="geometry" />
        </mxCell>
        <mxCell id="2Ll1QgH6S7E57T0h4xmj-27" value="" style="edgeStyle=orthogonalEdgeStyle;rounded=0;orthogonalLoop=1;jettySize=auto;html=1;" edge="1" parent="WIyWlLk6GJQsqaUBKTNV-1" source="2Ll1QgH6S7E57T0h4xmj-24" target="2Ll1QgH6S7E57T0h4xmj-26">
          <mxGeometry relative="1" as="geometry" />
        </mxCell>
        <mxCell id="2Ll1QgH6S7E57T0h4xmj-30" value="" style="edgeStyle=orthogonalEdgeStyle;rounded=0;orthogonalLoop=1;jettySize=auto;html=1;" edge="1" parent="WIyWlLk6GJQsqaUBKTNV-1" source="2Ll1QgH6S7E57T0h4xmj-24" target="2Ll1QgH6S7E57T0h4xmj-29">
          <mxGeometry relative="1" as="geometry" />
        </mxCell>
        <mxCell id="2Ll1QgH6S7E57T0h4xmj-24" value="judul sesuai?" style="rhombus;whiteSpace=wrap;html=1;glass=0;strokeWidth=1;shadow=0;" vertex="1" parent="WIyWlLk6GJQsqaUBKTNV-1">
          <mxGeometry x="370" y="400" width="80" height="80" as="geometry" />
        </mxCell>
        <mxCell id="2Ll1QgH6S7E57T0h4xmj-34" value="" style="edgeStyle=orthogonalEdgeStyle;rounded=0;orthogonalLoop=1;jettySize=auto;html=1;" edge="1" parent="WIyWlLk6GJQsqaUBKTNV-1" source="2Ll1QgH6S7E57T0h4xmj-26" target="2Ll1QgH6S7E57T0h4xmj-33">
          <mxGeometry relative="1" as="geometry" />
        </mxCell>
        <mxCell id="2Ll1QgH6S7E57T0h4xmj-26" value="detail buku" style="whiteSpace=wrap;html=1;glass=0;strokeWidth=1;shadow=0;" vertex="1" parent="WIyWlLk6GJQsqaUBKTNV-1">
          <mxGeometry x="210" y="420" width="120" height="40" as="geometry" />
        </mxCell>
        <mxCell id="2Ll1QgH6S7E57T0h4xmj-28" style="edgeStyle=orthogonalEdgeStyle;rounded=0;orthogonalLoop=1;jettySize=auto;html=1;exitX=0.5;exitY=1;exitDx=0;exitDy=0;" edge="1" parent="WIyWlLk6GJQsqaUBKTNV-1" source="2Ll1QgH6S7E57T0h4xmj-26" target="2Ll1QgH6S7E57T0h4xmj-26">
          <mxGeometry relative="1" as="geometry" />
        </mxCell>
        <mxCell id="2Ll1QgH6S7E57T0h4xmj-29" value="buku tidak ditemukan" style="whiteSpace=wrap;html=1;glass=0;strokeWidth=1;shadow=0;" vertex="1" parent="WIyWlLk6GJQsqaUBKTNV-1">
          <mxGeometry x="500" y="420" width="120" height="40" as="geometry" />
        </mxCell>
        <mxCell id="2Ll1QgH6S7E57T0h4xmj-31" value="yes" style="text;html=1;strokeColor=none;fillColor=none;align=center;verticalAlign=middle;whiteSpace=wrap;rounded=0;" vertex="1" parent="WIyWlLk6GJQsqaUBKTNV-1">
          <mxGeometry x="330" y="400" width="60" height="30" as="geometry" />
        </mxCell>
        <mxCell id="2Ll1QgH6S7E57T0h4xmj-32" value="no" style="text;html=1;strokeColor=none;fillColor=none;align=center;verticalAlign=middle;whiteSpace=wrap;rounded=0;" vertex="1" parent="WIyWlLk6GJQsqaUBKTNV-1">
          <mxGeometry x="440" y="400" width="60" height="30" as="geometry" />
        </mxCell>
        <mxCell id="2Ll1QgH6S7E57T0h4xmj-36" value="" style="edgeStyle=orthogonalEdgeStyle;rounded=0;orthogonalLoop=1;jettySize=auto;html=1;" edge="1" parent="WIyWlLk6GJQsqaUBKTNV-1" source="2Ll1QgH6S7E57T0h4xmj-33" target="2Ll1QgH6S7E57T0h4xmj-35">
          <mxGeometry relative="1" as="geometry" />
        </mxCell>
        <mxCell id="2Ll1QgH6S7E57T0h4xmj-38" value="" style="edgeStyle=orthogonalEdgeStyle;rounded=0;orthogonalLoop=1;jettySize=auto;html=1;" edge="1" parent="WIyWlLk6GJQsqaUBKTNV-1" source="2Ll1QgH6S7E57T0h4xmj-33" target="2Ll1QgH6S7E57T0h4xmj-37">
          <mxGeometry relative="1" as="geometry" />
        </mxCell>
        <mxCell id="2Ll1QgH6S7E57T0h4xmj-33" value="klik filter?" style="rhombus;whiteSpace=wrap;html=1;glass=0;strokeWidth=1;shadow=0;" vertex="1" parent="WIyWlLk6GJQsqaUBKTNV-1">
          <mxGeometry x="230" y="520" width="80" height="80" as="geometry" />
        </mxCell>
        <mxCell id="2Ll1QgH6S7E57T0h4xmj-46" style="edgeStyle=orthogonalEdgeStyle;rounded=0;orthogonalLoop=1;jettySize=auto;html=1;exitX=0.5;exitY=1;exitDx=0;exitDy=0;entryX=0;entryY=0.5;entryDx=0;entryDy=0;" edge="1" parent="WIyWlLk6GJQsqaUBKTNV-1" source="2Ll1QgH6S7E57T0h4xmj-35" target="2Ll1QgH6S7E57T0h4xmj-43">
          <mxGeometry relative="1" as="geometry" />
        </mxCell>
        <mxCell id="2Ll1QgH6S7E57T0h4xmj-35" value="list buku sesuai filter" style="whiteSpace=wrap;html=1;glass=0;strokeWidth=1;shadow=0;" vertex="1" parent="WIyWlLk6GJQsqaUBKTNV-1">
          <mxGeometry x="60" y="545" width="120" height="30" as="geometry" />
        </mxCell>
        <mxCell id="2Ll1QgH6S7E57T0h4xmj-45" style="edgeStyle=orthogonalEdgeStyle;rounded=0;orthogonalLoop=1;jettySize=auto;html=1;exitX=0.5;exitY=1;exitDx=0;exitDy=0;" edge="1" parent="WIyWlLk6GJQsqaUBKTNV-1" source="2Ll1QgH6S7E57T0h4xmj-37" target="2Ll1QgH6S7E57T0h4xmj-43">
          <mxGeometry relative="1" as="geometry" />
        </mxCell>
        <mxCell id="2Ll1QgH6S7E57T0h4xmj-37" value="list semua buku" style="whiteSpace=wrap;html=1;glass=0;strokeWidth=1;shadow=0;" vertex="1" parent="WIyWlLk6GJQsqaUBKTNV-1">
          <mxGeometry x="370" y="545" width="120" height="30" as="geometry" />
        </mxCell>
        <mxCell id="2Ll1QgH6S7E57T0h4xmj-39" value="yes" style="text;html=1;strokeColor=none;fillColor=none;align=center;verticalAlign=middle;whiteSpace=wrap;rounded=0;" vertex="1" parent="WIyWlLk6GJQsqaUBKTNV-1">
          <mxGeometry x="180" y="520" width="60" height="30" as="geometry" />
        </mxCell>
        <mxCell id="2Ll1QgH6S7E57T0h4xmj-40" value="no" style="text;html=1;strokeColor=none;fillColor=none;align=center;verticalAlign=middle;whiteSpace=wrap;rounded=0;" vertex="1" parent="WIyWlLk6GJQsqaUBKTNV-1">
          <mxGeometry x="300" y="515" width="60" height="30" as="geometry" />
        </mxCell>
        <mxCell id="2Ll1QgH6S7E57T0h4xmj-44" style="edgeStyle=orthogonalEdgeStyle;rounded=0;orthogonalLoop=1;jettySize=auto;html=1;exitX=0.5;exitY=1;exitDx=0;exitDy=0;entryX=1;entryY=0.5;entryDx=0;entryDy=0;" edge="1" parent="WIyWlLk6GJQsqaUBKTNV-1" source="2Ll1QgH6S7E57T0h4xmj-41" target="2Ll1QgH6S7E57T0h4xmj-43">
          <mxGeometry relative="1" as="geometry" />
        </mxCell>
        <mxCell id="2Ll1QgH6S7E57T0h4xmj-41" value="user melihat visualisasi data" style="whiteSpace=wrap;html=1;glass=0;strokeWidth=1;shadow=0;" vertex="1" parent="WIyWlLk6GJQsqaUBKTNV-1">
          <mxGeometry x="670" y="360" width="120" height="40" as="geometry" />
        </mxCell>
        <mxCell id="2Ll1QgH6S7E57T0h4xmj-43" value="selesai" style="rounded=1;whiteSpace=wrap;html=1;fontSize=12;glass=0;strokeWidth=1;shadow=0;" vertex="1" parent="WIyWlLk6GJQsqaUBKTNV-1">
          <mxGeometry x="370" y="740" width="120" height="40" as="geometry" />
        </mxCell>
      </root>
    </mxGraphModel>
  </diagram>
  <diagram id="iRayrYImk1zxV1Rh41iW" name="Halaman-2">
    <mxGraphModel dx="880" dy="426" grid="1" gridSize="10" guides="1" tooltips="1" connect="1" arrows="1" fold="1" page="1" pageScale="1" pageWidth="827" pageHeight="1169" math="0" shadow="0">
      <root>
        <mxCell id="0" />
        <mxCell id="1" parent="0" />
        <mxCell id="4ypQ99d6NAr8otvOwCjA-3" style="edgeStyle=orthogonalEdgeStyle;rounded=0;orthogonalLoop=1;jettySize=auto;html=1;exitX=0.5;exitY=1;exitDx=0;exitDy=0;entryX=0.5;entryY=1;entryDx=0;entryDy=0;" edge="1" parent="1" source="4ypQ99d6NAr8otvOwCjA-1" target="4ypQ99d6NAr8otvOwCjA-2">
          <mxGeometry relative="1" as="geometry" />
        </mxCell>
        <mxCell id="4ypQ99d6NAr8otvOwCjA-5" value="info title&lt;br&gt;info jurusan&lt;br&gt;info deskripsi&lt;br&gt;info visualisasi data" style="edgeLabel;html=1;align=center;verticalAlign=middle;resizable=0;points=[];" vertex="1" connectable="0" parent="4ypQ99d6NAr8otvOwCjA-3">
          <mxGeometry x="-0.1667" y="1" relative="1" as="geometry">
            <mxPoint as="offset" />
          </mxGeometry>
        </mxCell>
        <mxCell id="4ypQ99d6NAr8otvOwCjA-1" value="WEBSITE INFORMASI KLASIFIKASI BUKU BERDASARKAN JURUSAN" style="ellipse;whiteSpace=wrap;html=1;aspect=fixed;" vertex="1" parent="1">
          <mxGeometry x="430" y="150" width="180" height="180" as="geometry" />
        </mxCell>
        <mxCell id="4ypQ99d6NAr8otvOwCjA-4" style="edgeStyle=orthogonalEdgeStyle;rounded=0;orthogonalLoop=1;jettySize=auto;html=1;exitX=0.5;exitY=0;exitDx=0;exitDy=0;entryX=0.5;entryY=0;entryDx=0;entryDy=0;" edge="1" parent="1" source="4ypQ99d6NAr8otvOwCjA-2" target="4ypQ99d6NAr8otvOwCjA-1">
          <mxGeometry relative="1" as="geometry" />
        </mxCell>
        <mxCell id="4ypQ99d6NAr8otvOwCjA-2" value="USER" style="rounded=0;whiteSpace=wrap;html=1;" vertex="1" parent="1">
          <mxGeometry x="110" y="210" width="120" height="60" as="geometry" />
        </mxCell>
        <mxCell id="4ypQ99d6NAr8otvOwCjA-7" value="akses" style="text;html=1;strokeColor=none;fillColor=none;align=center;verticalAlign=middle;whiteSpace=wrap;rounded=0;" vertex="1" parent="1">
          <mxGeometry x="320" y="100" width="60" height="30" as="geometry" />
        </mxCell>
      </root>
    </mxGraphModel>
  </diagram>
  <diagram id="_1-g4HvOZnj7lfcYb048" name="Halaman-3">
    <mxGraphModel dx="880" dy="426" grid="1" gridSize="10" guides="1" tooltips="1" connect="1" arrows="1" fold="1" page="1" pageScale="1" pageWidth="827" pageHeight="1169" math="0" shadow="0">
      <root>
        <mxCell id="0" />
        <mxCell id="1" parent="0" />
        <mxCell id="fR1DaczI9OO-SkMqAKPk-1" value="" style="endArrow=none;html=1;rounded=0;strokeWidth=2;" edge="1" parent="1">
          <mxGeometry width="50" height="50" relative="1" as="geometry">
            <mxPoint x="549" y="310" as="sourcePoint" />
            <mxPoint x="669" y="310" as="targetPoint" />
          </mxGeometry>
        </mxCell>
        <mxCell id="fR1DaczI9OO-SkMqAKPk-2" value="" style="endArrow=none;html=1;rounded=0;strokeWidth=2;" edge="1" parent="1">
          <mxGeometry width="50" height="50" relative="1" as="geometry">
            <mxPoint x="550" y="337" as="sourcePoint" />
            <mxPoint x="670" y="337" as="targetPoint" />
          </mxGeometry>
        </mxCell>
        <mxCell id="fR1DaczI9OO-SkMqAKPk-3" value="buku_perpustakaan" style="text;html=1;align=center;verticalAlign=middle;resizable=0;points=[];autosize=1;strokeColor=none;fillColor=none;strokeWidth=3;" vertex="1" parent="1">
          <mxGeometry x="540" y="307.5" width="130" height="30" as="geometry" />
        </mxCell>
        <mxCell id="y7wj0FVku6h9emEToIs7-3" value="" style="edgeStyle=orthogonalEdgeStyle;rounded=0;orthogonalLoop=1;jettySize=auto;html=1;entryX=0.5;entryY=1;entryDx=0;entryDy=0;" edge="1" parent="1" source="y7wj0FVku6h9emEToIs7-1" target="y7wj0FVku6h9emEToIs7-2">
          <mxGeometry relative="1" as="geometry" />
        </mxCell>
        <mxCell id="y7wj0FVku6h9emEToIs7-7" value="informasi klasifikasi buku&lt;br&gt;infomasi visualisasi data" style="edgeLabel;html=1;align=center;verticalAlign=middle;resizable=0;points=[];" vertex="1" connectable="0" parent="y7wj0FVku6h9emEToIs7-3">
          <mxGeometry x="-0.5429" y="3" relative="1" as="geometry">
            <mxPoint x="-28" y="-3" as="offset" />
          </mxGeometry>
        </mxCell>
        <mxCell id="y7wj0FVku6h9emEToIs7-1" value="WEBSITE INFORMASI KLASIFIKASI BUKU BERDASARKAN JURUSAN" style="ellipse;whiteSpace=wrap;html=1;aspect=fixed;" vertex="1" parent="1">
          <mxGeometry x="300" y="250" width="145" height="145" as="geometry" />
        </mxCell>
        <mxCell id="y7wj0FVku6h9emEToIs7-8" style="edgeStyle=orthogonalEdgeStyle;rounded=0;orthogonalLoop=1;jettySize=auto;html=1;exitX=0.5;exitY=0;exitDx=0;exitDy=0;entryX=0.5;entryY=0;entryDx=0;entryDy=0;" edge="1" parent="1" source="y7wj0FVku6h9emEToIs7-2" target="y7wj0FVku6h9emEToIs7-1">
          <mxGeometry relative="1" as="geometry" />
        </mxCell>
        <mxCell id="y7wj0FVku6h9emEToIs7-9" value="akses" style="edgeLabel;html=1;align=center;verticalAlign=middle;resizable=0;points=[];" vertex="1" connectable="0" parent="y7wj0FVku6h9emEToIs7-8">
          <mxGeometry x="-0.1206" y="2" relative="1" as="geometry">
            <mxPoint y="-13" as="offset" />
          </mxGeometry>
        </mxCell>
        <mxCell id="y7wj0FVku6h9emEToIs7-2" value="user" style="whiteSpace=wrap;html=1;" vertex="1" parent="1">
          <mxGeometry x="80" y="195" width="120" height="60" as="geometry" />
        </mxCell>
        <mxCell id="y7wj0FVku6h9emEToIs7-4" value="" style="endArrow=classic;html=1;rounded=0;entryX=1;entryY=0.5;entryDx=0;entryDy=0;" edge="1" parent="1" source="fR1DaczI9OO-SkMqAKPk-3" target="y7wj0FVku6h9emEToIs7-1">
          <mxGeometry width="50" height="50" relative="1" as="geometry">
            <mxPoint x="390" y="250" as="sourcePoint" />
            <mxPoint x="440" y="200" as="targetPoint" />
          </mxGeometry>
        </mxCell>
        <mxCell id="y7wj0FVku6h9emEToIs7-6" value="title&lt;br&gt;jurusan&lt;br&gt;deskripsi" style="edgeLabel;html=1;align=center;verticalAlign=middle;resizable=0;points=[];" vertex="1" connectable="0" parent="y7wj0FVku6h9emEToIs7-4">
          <mxGeometry x="-0.0105" y="-2" relative="1" as="geometry">
            <mxPoint as="offset" />
          </mxGeometry>
        </mxCell>
      </root>
    </mxGraphModel>
  </diagram>
</mxfile>
